<svg width="18" height="14" viewBox="0 0 18 14" fill="none" xmlns="http://www.w3.org/2000/svg">
<path d="M7.35911 10.2785L1.34265 6.01033C1.20094 5.9276 1.08351 5.8098 1.00193 5.66855C0.920347 5.5273 0.877441 5.36748 0.877441 5.20485C0.877441 5.04222 0.920347 4.8824 1.00193 4.74115C1.08351 4.59991 1.20094 4.4821 1.34265 4.39937L7.35911 0.128618C7.50253 0.0452743 7.66571 0.000905012 7.8321 1.36988e-05C7.99849 -0.000877614 8.16215 0.0417407 8.30648 0.123543C8.4508 0.205345 8.57065 0.323419 8.65386 0.465777C8.73707 0.608136 8.78067 0.769711 8.78024 0.934101V2.60102C10.7559 2.60102 16.6828 2.60102 17.9999 13.0111C14.7071 7.15545 8.78024 7.80608 8.78024 7.80608V9.473C8.78024 10.2017 7.98209 10.6415 7.35911 10.2798V10.2785Z" fill="#888888"/>
</svg>
