<svg width="16" height="16" viewBox="0 0 16 16" fill="none" xmlns="http://www.w3.org/2000/svg">
<path d="M15.3842 3.38925C15.1399 2.79595 14.7877 2.25832 14.3473 1.80643C13.9065 1.3532 13.3868 0.993027 12.8165 0.745492C12.2251 0.487794 11.5907 0.355889 10.9503 0.357435C10.0519 0.357435 9.17534 0.615502 8.41358 1.10296C8.23134 1.21957 8.05821 1.34765 7.8942 1.4872C7.73018 1.34765 7.55706 1.21957 7.37482 1.10296C6.61306 0.615502 5.73649 0.357435 4.83805 0.357435C4.19111 0.357435 3.56421 0.487425 2.97193 0.745492C2.3997 0.994001 1.88396 1.35147 1.44112 1.80643C1.0001 2.25781 0.647799 2.79557 0.404186 3.38925C0.150874 4.0067 0.0214844 4.66238 0.0214844 5.33717C0.0214844 5.97374 0.145407 6.63707 0.391429 7.31186C0.597359 7.87579 0.892586 8.46074 1.26982 9.05143C1.86756 9.9862 2.68946 10.9611 3.71 11.9494C5.40117 13.5877 7.07595 14.7193 7.14702 14.7652L7.57893 15.0558C7.77028 15.1839 8.0163 15.1839 8.20765 15.0558L8.63956 14.7652C8.71063 14.7174 10.3836 13.5877 12.0766 11.9494C13.0971 10.9611 13.919 9.9862 14.5168 9.05143C14.894 8.46074 15.191 7.87579 15.3951 7.31186C15.6412 6.63707 15.7651 5.97374 15.7651 5.33717C15.7669 4.66238 15.6375 4.0067 15.3842 3.38925Z" fill="#2EC4B6"/>
</svg>
