<svg width="13" height="17" viewBox="0 0 13 17" fill="none" xmlns="http://www.w3.org/2000/svg">
<path d="M4.46453 9.32469L5.15289 7.05329L3.34348 5.57887H5.58558L6.29361 3.34732L7.00164 5.57887H9.24374L7.41466 7.05329L8.10302 9.32469L6.29361 7.91005L4.46453 9.32469ZM1.5734 16.7366V10.5799C1.07516 10.022 0.688363 9.38446 0.413018 8.66718C0.137673 7.9499 0 7.18612 0 6.37586C0 4.59593 0.609693 3.08831 1.82908 1.85298C3.04847 0.617661 4.53664 0 6.29361 0C8.05057 0 9.53875 0.617661 10.7581 1.85298C11.9775 3.08831 12.5872 4.59593 12.5872 6.37586C12.5872 7.18612 12.4495 7.9499 12.1742 8.66718C11.8989 9.38446 11.5121 10.022 11.0138 10.5799V16.7366L6.29361 15.1427L1.5734 16.7366ZM6.29361 11.1577C7.60478 11.1577 8.71927 10.6928 9.63709 9.76303C10.5549 8.83322 11.0138 7.70416 11.0138 6.37586C11.0138 5.04755 10.5549 3.91849 9.63709 2.98868C8.71927 2.05887 7.60478 1.59396 6.29361 1.59396C4.98244 1.59396 3.86795 2.05887 2.95013 2.98868C2.03231 3.91849 1.5734 5.04755 1.5734 6.37586C1.5734 7.70416 2.03231 8.83322 2.95013 9.76303C3.86795 10.6928 4.98244 11.1577 6.29361 11.1577Z" fill="#F1F1F1"/>
</svg>
