<svg width="26" height="25" viewBox="0 0 26 25" fill="none" xmlns="http://www.w3.org/2000/svg">
<path d="M1.74772 0.0400753C1.36105 0.134045 0.983245 0.433575 0.820905 0.777151C0.750066 0.926916 0.741211 0.982708 0.741211 1.24113V1.53478L2.35871 5.83685C3.24715 8.20078 3.97915 10.1389 3.98211 10.1448C3.98801 10.1477 7.20234 10.6851 11.1251 11.3341C15.0478 11.986 18.2592 12.5234 18.2592 12.5322C18.2592 12.541 15.0478 13.0784 11.1251 13.7303C7.20234 14.3793 3.98801 14.9167 3.98211 14.9196C3.97915 14.9255 3.26486 16.8225 2.39413 19.1395C1.41123 21.7618 0.800244 23.4298 0.779582 23.5502C0.708743 23.9466 0.853373 24.3754 1.15444 24.6573C1.50864 24.9891 1.9809 25.086 2.45906 24.9216C2.54466 24.8922 3.7873 24.2814 5.21884 23.5649C8.26198 22.0378 22.8962 14.7199 24.4251 13.9564C25.2545 13.5453 25.4936 13.4102 25.5969 13.3104C26.0485 12.8611 26.0249 12.1035 25.5467 11.6277C25.3637 11.4427 25.9334 11.7335 12.6068 5.0704C5.82688 1.67867 2.59779 0.0811863 2.46792 0.045948C2.23474 -0.0127831 1.9809 -0.0157204 1.74772 0.0400753Z" fill="#1D7971"/>
</svg>
