<svg width="17" height="17" viewBox="0 0 17 17" fill="none" xmlns="http://www.w3.org/2000/svg">
<path d="M1.55367 0.617188L15.5985 14.8316L14.5182 15.9248L11.6556 13.0278L8.57608 16.1513L2.09762 9.58574C1.34462 8.7309 0.930677 7.62439 0.935473 6.4792C0.940268 5.33402 1.36346 4.2311 2.12359 3.38275L0.472656 1.7112L1.55367 0.617188ZM14.8735 3.21807C15.7011 4.05554 16.1809 5.18167 16.2144 6.36563C16.2479 7.54959 15.8327 8.70168 15.0538 9.58574L13.8047 10.8506L4.95486 1.89521C5.60451 1.81279 6.26406 1.87251 6.88893 2.07032C7.5138 2.26813 8.08941 2.59942 8.57684 3.04179C9.44973 2.25101 10.5887 1.82861 11.7598 1.8614C12.9309 1.89418 14.0451 2.37966 14.8735 3.21807Z" fill="#9D4942"/>
</svg>
